<?xml version="1.0" encoding="UTF-8" standalone="no"?>
<!-- Created with Inkscape (http://www.inkscape.org/) -->

<svg
   xmlns:dc="http://purl.org/dc/elements/1.1/"
   xmlns:cc="http://creativecommons.org/ns#"
   xmlns:rdf="http://www.w3.org/1999/02/22-rdf-syntax-ns#"
   xmlns:svg="http://www.w3.org/2000/svg"
   xmlns="http://www.w3.org/2000/svg"
   xmlns:sodipodi="http://sodipodi.sourceforge.net/DTD/sodipodi-0.dtd"
   xmlns:inkscape="http://www.inkscape.org/namespaces/inkscape"
   id="svg2"
   version="1.1"
   inkscape:version="0.91 r13725"
   xml:space="preserve"
   width="360"
   height="142"
   viewBox="0 0 360 142"
   sodipodi:docname="LogoCaballero.svg"><metadata
     id="metadata8"><rdf:RDF><cc:Work
         rdf:about=""><dc:format>image/svg+xml</dc:format><dc:type
           rdf:resource="http://purl.org/dc/dcmitype/StillImage" /><dc:title></dc:title></cc:Work></rdf:RDF></metadata><defs
     id="defs6"><clipPath
       clipPathUnits="userSpaceOnUse"
       id="clipPath20"><path
         d="m 0,0 595.276,0 0,841.89 L 0,841.89 0,0 Z"
         id="path22"
         inkscape:connector-curvature="0" /></clipPath></defs><sodipodi:namedview
     pagecolor="#ffffff"
     bordercolor="#666666"
     borderopacity="1"
     objecttolerance="10"
     gridtolerance="10"
     guidetolerance="10"
     inkscape:pageopacity="0"
     inkscape:pageshadow="2"
     inkscape:window-width="1920"
     inkscape:window-height="993"
     id="namedview4"
     showgrid="false"
     inkscape:zoom="3.4577411"
     inkscape:cx="164.38636"
     inkscape:cy="71.830266"
     inkscape:window-x="0"
     inkscape:window-y="24"
     inkscape:window-maximized="1"
     inkscape:current-layer="g10" /><g
     id="g10"
     inkscape:groupmode="layer"
     inkscape:label="LogoCaballero"
     transform="matrix(1.25,0,0,-1.25,-149.305,597.74875)"><g
       id="g12"
       transform="translate(142.06412,471.98602)"><path
         d="m 0,0 0,-102.671 -21.047,16.325 0,73.124 L 0,0 Z"
         style="fill:#008350;fill-opacity:1;fill-rule:nonzero;stroke:none"
         id="path14"
         inkscape:connector-curvature="0" /></g><g
       id="g16"
       inkscape:export-xdpi="90"
       inkscape:export-ydpi="90"
       transform="translate(-38.43148,-17.568677)"><g
         id="g18"
         clip-path="url(#clipPath20)"><g
           id="g24"
           transform="translate(241.8518,409.3033)"><path
             d="m 0,0 c -28.578,-9.028 -53.485,-18.106 -61.545,-20.59 l -20.804,14.495 c -0.837,0.585 17.266,-17.175 20.804,-20.531 19.705,8.49 40.391,16.951 61.545,24.675 L 0,0 Z"
             style="fill:#008350;fill-opacity:1;fill-rule:nonzero;stroke:none"
             id="path26"
             inkscape:connector-curvature="0" /></g><g
           id="g28"
           transform="translate(226.3702,474.3631)"><path
             d="M 0,0 C -21.677,8.742 -15.077,6.691 -46.063,20.588 -48.327,18.767 -67.704,1.478 -66.867,2.024 l 20.804,12.53 C -35.241,10.478 -16.683,4.555 0,-0.661 L 0,0 Z"
             style="fill:#008350;fill-opacity:1;fill-rule:nonzero;stroke:none"
             id="path30"
             inkscape:connector-curvature="0" /></g><g
           id="g32"
           transform="translate(177.7733,408.7953)"><path
             d="m 0,0 0,5.665 c -1.565,0.841 -4.118,2.286 -7.064,3.988 -2.702,1.561 -5.659,3.262 -8.482,4.919 l 0,-1.547 M 0,9.13 0,14.783 c -1.567,0.652 -4.116,1.764 -7.064,3.086 -2.698,1.212 -5.657,2.55 -8.482,3.836 l 0,-1.544 M 0,18.24 0,23.893 c -1.567,0.442 -4.12,1.235 -7.064,2.186 -2.698,0.871 -5.657,1.819 -8.482,2.753 l 0,-1.536 M 0,36.458 0,42.122 c -1.569,0.042 -4.122,0.182 -7.064,0.382 -2.698,0.183 -5.655,0.392 -8.482,0.598 l 0,-1.537 M 0,45.577 0,51.23 c -1.569,-0.147 -4.124,-0.343 -7.064,-0.517 -2.698,-0.162 -5.653,-0.338 -8.482,-0.492 l 0,-1.538 M 0,54.687 0,60.36 c -1.571,-0.349 -4.122,-0.873 -7.064,-1.43 -2.694,-0.511 -5.651,-1.052 -8.482,-1.575 l 0,-1.538 M 0,63.815 0,69.469 c -1.573,-0.557 -4.124,-1.404 -7.064,-2.332 -2.696,-0.849 -5.649,-1.772 -8.482,-2.654 l 0,-1.538 M 0,27.35 0,33.002 c -1.567,0.253 -4.12,0.71 -7.064,1.285 -2.698,0.528 -5.655,1.105 -8.482,1.672 l 0,-1.537 M 0,-9.09 0,-3.454 c -1.565,1.052 -4.116,2.813 -7.064,4.891 -2.702,1.904 -5.661,4 -8.482,6.008 l 0,-1.539"
             style="fill:#ffffff;fill-opacity:1;fill-rule:nonzero;stroke:none"
             id="path34"
             inkscape:connector-curvature="0" /></g><g
           id="g36"
           transform="translate(217.5017,470.7818)"><path
             d="m 0,0 c -13.511,2.632 -29.509,5.865 -34.659,7.111 l 0,-5.655 c 2.53,0.191 6.103,-0.297 11.534,-0.537 2.984,-0.132 8.364,-0.57 14.368,-1.173 C -5.908,-0.54 -2.939,-0.855 0,-1.18 L 0,0 Z m 0,-7.321 c -13.515,1.937 -29.515,4.349 -34.659,5.322 l 0,-5.673 c 2.53,0.32 6.103,0.026 11.526,0.067 2.992,0.021 8.364,-0.152 14.376,-0.44 2.85,-0.136 5.818,-0.297 8.757,-0.471 l 0,1.195 z m 0,-7.33 c -13.516,1.237 -29.515,2.815 -34.659,3.523 l 0,-5.653 c 2.53,0.45 6.095,0.33 11.526,0.651 2.986,0.176 8.364,0.29 14.376,0.311 2.849,0.011 5.818,0.005 8.757,-0.016 l 0,1.184 z m 0,-7.315 c -13.52,0.534 -29.521,1.287 -34.659,1.728 l 0,-5.663 c 2.524,0.581 6.095,0.655 11.521,1.256 2.991,0.33 8.369,0.716 14.381,1.053 2.848,0.16 5.817,0.307 8.757,0.438 l 0,1.188 z m -34.659,-7.39 0,-5.655 c 2.524,0.711 6.091,0.959 11.521,1.842 2.985,0.484 8.363,1.151 14.381,1.795 2.851,0.304 5.819,0.605 8.757,0.887 l 0,1.184 c -13.524,-0.158 -29.521,-0.231 -34.659,-0.053 M 0,-36.633 c -13.523,-0.854 -29.528,-1.747 -34.659,-1.832 l 0,-5.653 c 2.524,0.838 6.091,1.271 11.517,2.441 2.989,0.63 8.367,1.567 14.385,2.52 2.85,0.452 5.818,0.906 8.757,1.339 l 0,1.185 z m 0,-7.321 c -13.532,-1.551 -29.528,-3.271 -34.659,-3.621 l 0,-5.653 c 2.519,0.97 6.083,1.578 11.517,3.018 2.984,0.793 8.367,2.016 14.385,3.279 2.85,0.599 5.818,1.205 8.757,1.792 l 0,1.185 z m 0,-7.323 c -13.533,-2.254 -29.532,-4.801 -34.659,-5.416 l 0,-5.665 c 2.519,1.1 6.083,1.901 11.509,3.634 2.992,0.945 8.37,2.439 14.393,4.011 2.851,0.745 5.819,1.504 8.757,2.241 l 0,1.195 z m 0,-7.333 c -13.537,-2.952 -29.533,-6.324 -34.659,-7.205 l 0,-5.633 c 2.519,1.22 6.077,2.208 11.509,4.207 2.986,1.103 8.368,2.88 14.393,4.762 2.85,0.89 5.819,1.801 8.757,2.687 l 0,1.182 z"
             style="fill:#008350;fill-opacity:1;fill-rule:nonzero;stroke:none"
             id="path38"
             inkscape:connector-curvature="0" /></g><g
           id="g40"
           transform="translate(234.6347,443.8568)"><path
             d="m 0,0 c 0,6.963 2.807,8.312 7.34,8.312 2.483,0 4.696,-0.486 6.693,-1.295 l 0,5.397 C 11.712,13.331 9.121,13.925 6.261,13.925 -1.943,13.925 -6.477,8.96 -6.477,0 c 0,-8.96 4.534,-13.871 12.738,-13.871 2.86,0 5.451,0.594 7.772,1.511 l 0,5.398 C 12.036,-7.772 9.823,-8.312 7.34,-8.312 2.807,-8.312 0,-6.909 0,0 m 30.008,13.925 c -3.238,0 -5.991,-0.594 -8.258,-1.511 l 0,-5.236 c 1.997,0.81 4.642,1.35 7.88,1.35 4.21,0 5.721,-2.159 5.721,-5.074 -1.457,0.216 -3.076,0.378 -4.749,0.378 -10.795,0 -11.604,-6.477 -11.604,-8.474 0,-4.479 3.022,-9.229 11.55,-9.229 8.366,0 11.334,4.696 11.334,9.067 l 0,7.287 c 0,7.394 -4.21,11.442 -11.874,11.442 m 5.397,-17.973 c 0,-2.483 -1.295,-4.102 -4.911,-4.102 -3.4,0 -5.074,1.511 -5.074,4.318 0,2.213 1.728,3.508 6.099,3.508 1.458,0 2.753,-0.162 3.886,-0.324 l 0,-3.4 z m 24.234,17.973 c -1.511,0 -2.968,-0.162 -4.425,-0.432 l 0,10.309 -6.477,0 0,-28.606 c 0,-4.371 2.968,-9.067 11.334,-9.067 3.616,0 12.09,1.403 12.09,14.195 0,8.797 -4.48,13.601 -12.522,13.601 m 0.432,-22.237 c -2.86,0 -4.857,0.648 -4.857,2.915 l 0,13.763 c 1.133,0.27 2.536,0.432 4.209,0.432 3.725,0 6.207,-1.781 6.207,-8.15 0,-6.153 -1.403,-8.96 -5.559,-8.96 m 28.606,22.237 c -3.238,0 -5.991,-0.594 -8.258,-1.511 l 0,-5.236 c 1.997,0.81 4.642,1.35 7.88,1.35 4.21,0 5.721,-2.159 5.721,-5.074 -1.457,0.216 -3.076,0.378 -4.749,0.378 -10.795,0 -11.604,-6.477 -11.604,-8.474 0,-4.479 3.022,-9.229 11.55,-9.229 8.366,0 11.334,4.696 11.334,9.067 l 0,7.287 c 0,7.394 -4.21,11.442 -11.874,11.442 m 5.397,-17.973 c 0,-2.483 -1.295,-4.102 -4.911,-4.102 -3.401,0 -5.074,1.511 -5.074,4.318 0,2.213 1.727,3.508 6.099,3.508 1.458,0 2.753,-0.162 3.886,-0.324 l 0,-3.4 z m 20.51,27.796 -6.477,0 0,-37.187 6.477,0 0,37.187 z m 15.382,0 -6.477,0 0,-37.187 6.477,0 0,37.187 z m 21.104,-32.06 c -3.131,0 -6.477,0.702 -6.855,5.883 l 17.325,0 c 0.108,1.08 0.108,2.159 0.108,3.347 0,6.746 -3.616,13.061 -12.036,13.061 -8.797,0 -12.036,-6.207 -12.036,-14.249 0,-11.442 7.179,-13.601 12.522,-13.601 4.318,0 7.664,1.079 10.147,2.429 l 0,5.235 c -2.267,-1.079 -5.343,-2.105 -9.175,-2.105 M 149.612,8.69 c 3.455,0 5.128,-3.239 5.452,-6.639 l -10.849,0 c 0.378,4.804 2.213,6.639 5.397,6.639 m 18.351,2.374 0,-24.503 6.477,0 0,20.833 c 0.917,0.27 3.346,0.864 6.962,0.918 l 0,5.613 c -7.718,-0.162 -13.439,-2.861 -13.439,-2.861 m 30.171,2.807 c -8.203,0 -12.737,-4.911 -12.737,-13.871 0,-8.96 4.534,-13.871 12.737,-13.871 8.204,0 12.738,4.911 12.738,13.871 0,8.96 -4.534,13.871 -12.738,13.871 m 0,-22.399 c -3.832,0 -6.26,1.404 -6.26,8.528 0,7.124 2.428,8.528 6.26,8.528 3.833,0 6.261,-1.404 6.261,-8.528 0,-7.124 -2.428,-8.528 -6.261,-8.528"
             style="fill:#008350;fill-opacity:1;fill-rule:nonzero;stroke:none"
             id="path42"
             inkscape:connector-curvature="0" /></g><g
           id="g44"
           transform="translate(326.4886,415.9983)"><path
             d="m 0,0 c -3.951,0 -3.812,-3.692 -3.812,-4.614 0,-3.623 2.157,-4.371 3.969,-4.371 1.236,0 2.264,0.209 3.1,0.609 l 0,1.288 C 2.525,-7.524 1.55,-7.733 0.279,-7.733 c -1.794,0 -2.665,0.75 -2.822,2.493 l 6.34,0 c 0,0 0.035,0.278 0.035,0.608 C 3.832,-4.301 3.953,0 0,0 m -2.543,-4.128 c 0.122,2.144 0.836,2.946 2.543,2.946 2.403,0 2.543,-2.527 2.543,-2.946 l -5.086,0 z m 10.208,-0.26 c 0,-4.006 2.385,-4.597 3.813,-4.597 3.309,0 3.57,2.088 3.57,2.733 l 0,9.404 -1.252,0 0,-3.5 c -0.697,0.226 -1.412,0.331 -2.161,0.331 -1.812,0 -3.97,-0.748 -3.97,-4.371 m 1.252,0 c 0,2.248 0.819,3.223 2.718,3.223 0.749,0 1.481,-0.157 2.161,-0.435 l 0,-4.704 c 0,-1.028 -0.784,-1.533 -2.318,-1.533 -1.097,0 -2.561,0.348 -2.561,3.449 m 12.122,-4.457 -1.252,0 0,8.705 1.252,0 0,-8.705 z m 0.069,11.632 -1.391,0 0,-1.374 1.391,0 0,1.374 z m 8.604,-0.434 c 0.244,0 0.453,-0.034 0.627,-0.069 l 0,1.112 c -0.244,0.07 -0.522,0.105 -0.836,0.105 -0.696,0 -2.802,0 -2.802,-3.187 l 0,-0.471 -1.498,0 0,-1.147 1.498,0 0,-7.541 1.252,0 0,7.541 2.386,0 0,1.147 -2.386,0 0,0.488 c 0,2.022 0.958,2.022 1.759,2.022 z m 5.73,-11.198 -1.252,0 0,8.705 1.252,0 0,-8.705 z m 0.069,11.632 -1.391,0 0,-1.374 1.391,0 0,1.374 z m 5.486,-7.279 c 0,2.299 0.888,3.292 2.961,3.292 0.853,0 1.672,-0.174 2.438,-0.487 l 0,1.2 C 45.578,-0.174 44.707,0 43.819,0 c -1.864,0 -4.074,-0.782 -4.074,-4.492 0,-3.728 2.21,-4.493 4.074,-4.493 0.888,0 1.759,0.157 2.577,0.47 l 0,1.218 c -0.766,-0.331 -1.585,-0.488 -2.438,-0.488 -2.073,0 -2.961,0.976 -2.961,3.293 M 53.52,0 c -1.08,0 -1.969,-0.226 -2.613,-0.452 l 0,-1.218 c 0.331,0.122 1.289,0.418 2.544,0.418 1.568,0 2.544,-0.523 2.544,-2.161 0,0 -0.61,0.086 -1.394,0.086 -0.802,0 -4.545,0.018 -4.545,-2.855 0,-2.455 2.506,-2.803 3.638,-2.803 1.133,0 3.57,0.348 3.57,2.751 l 0,2.612 C 57.264,-1.252 55.96,0 53.52,0 m 2.492,-6.234 c 0,-1.325 -1.237,-1.586 -2.318,-1.586 -1.08,0 -2.387,0.261 -2.387,1.638 0,1.604 2.109,1.726 3.154,1.726 0.976,0 1.551,-0.105 1.551,-0.105 l 0,-1.673 z m 6.442,1.742 c 0,2.299 0.888,3.292 2.961,3.292 0.853,0 1.672,-0.174 2.438,-0.487 l 0,1.2 C 67.034,-0.174 66.163,0 65.275,0 c -1.863,0 -4.073,-0.782 -4.073,-4.492 0,-3.728 2.21,-4.493 4.073,-4.493 0.888,0 1.759,0.157 2.578,0.47 l 0,1.218 c -0.766,-0.331 -1.585,-0.488 -2.438,-0.488 -2.073,0 -2.961,0.976 -2.961,3.293 m 10.798,-4.353 -1.252,0 0,8.705 1.252,0 0,-8.705 z m 0.069,11.632 -1.391,0 0,-1.374 1.391,0 0,1.374 z M 81.647,0 c -1.864,0 -4.074,-0.782 -4.074,-4.492 0,-3.71 2.21,-4.493 4.074,-4.493 1.864,0 4.092,0.783 4.092,4.493 0,3.71 -2.228,4.492 -4.092,4.492 m 0,-7.837 c -1.969,0 -2.822,1.01 -2.822,3.345 0,2.334 0.853,3.345 2.822,3.345 1.986,0 2.84,-1.011 2.84,-3.345 0,-2.335 -0.854,-3.345 -2.84,-3.345 M 93.508,0 c -1.812,0 -3.257,-0.643 -3.674,-0.852 l 0,-7.993 1.252,0 0,7.245 c 0.592,0.174 1.394,0.348 2.282,0.348 2.091,0 2.335,-1.114 2.335,-1.933 l 0,-5.66 1.252,0 0,5.66 C 96.955,-1.165 95.703,0 93.508,0 m 11.546,0 c -3.952,0 -3.812,-3.692 -3.812,-4.614 0,-3.623 2.157,-4.371 3.968,-4.371 1.237,0 2.265,0.209 3.101,0.609 l 0,1.288 c -0.732,-0.436 -1.707,-0.645 -2.979,-0.645 -1.794,0 -2.664,0.75 -2.821,2.493 l 6.339,0 c 0,0 0.035,0.278 0.035,0.608 0,0.331 0.122,4.632 -3.831,4.632 m -2.543,-4.128 c 0.122,2.144 0.836,2.946 2.543,2.946 2.403,0 2.542,-2.527 2.542,-2.946 l -5.085,0 z m 11.408,1.604 c 0,1.098 1.08,1.324 1.969,1.324 0.906,0 1.62,-0.313 2.089,-0.592 l 0,1.253 C 117.404,-0.261 116.655,0 115.748,0 c -2.264,0 -3.081,-1.304 -3.081,-2.524 0,-3.048 4.667,-1.707 4.667,-4.042 0,-0.993 -1.08,-1.202 -1.986,-1.202 -0.907,0 -1.812,0.297 -2.577,0.767 l 0,-1.323 c 0.626,-0.348 1.479,-0.661 2.629,-0.661 1.986,0 3.186,0.904 3.186,2.419 0,3.415 -4.667,2.335 -4.667,4.042"
             style="fill:#008350;fill-opacity:1;fill-rule:nonzero;stroke:none"
             id="path46"
             inkscape:connector-curvature="0" /></g></g></g></g></svg>